<?xml version="1.0" encoding="UTF-8" standalone="no"?>
<!DOCTYPE svg PUBLIC "-//W3C//DTD SVG 1.1//EN"
 "http://www.w3.org/Graphics/SVG/1.1/DTD/svg11.dtd">
<!-- Generated by graphviz version 9.0.0 (20230911.1827)
 -->
<!-- Title: DinoEditorSetup Pages: 1 -->
<svg width="359pt" height="227pt"
 viewBox="0.00 0.00 359.38 226.75" xmlns="http://www.w3.org/2000/svg" xmlns:xlink="http://www.w3.org/1999/xlink">
<g id="graph0" class="graph" transform="scale(1 1) rotate(0) translate(4 222.75)">
<title>DinoEditorSetup</title>
<!-- Node1 -->
<g id="Node000001" class="node">
<title>Node1</title>
<g id="a_Node000001"><a xlink:title=" ">
<polygon fill="#999999" stroke="#666666" points="193.88,-19.25 107.38,-19.25 107.38,0 193.88,0 193.88,-19.25"/>
<text text-anchor="middle" x="150.62" y="-5.75" font-family="Helvetica,sans-Serif" font-size="10.00">DinoEditorSetup</text>
</a>
</g>
</g>
<!-- Node2 -->
<g id="Node000002" class="node">
<title>Node2</title>
<g id="a_Node000002"><a xlink:title=" ">
<polygon fill="white" stroke="#bfbfbf" points="75.25,-85.75 0,-85.75 0,-66.5 75.25,-66.5 75.25,-85.75"/>
<text text-anchor="middle" x="37.62" y="-72.25" font-family="Helvetica,sans-Serif" font-size="10.00">EditorWindow</text>
</a>
</g>
</g>
<!-- Node2&#45;&gt;Node1 -->
<g id="edge1_Node000001_Node000002" class="edge">
<title>Node2&#45;&gt;Node1</title>
<g id="a_edge1_Node000001_Node000002"><a xlink:title=" ">
<path fill="none" stroke="#63b8ff" d="M63.3,-60.47C85.24,-47.94 116.13,-30.31 134.68,-19.73"/>
<polygon fill="#63b8ff" stroke="#63b8ff" points="61.6,-57.41 54.65,-65.41 65.07,-63.49 61.6,-57.41"/>
</a>
</g>
</g>
<!-- Node3 -->
<g id="Node000003" class="node">
<title>Node3</title>
<g id="a_Node000003"><a xlink:href="class_unity_tool_manager.html" target="_top" xlink:title=" ">
<polygon fill="white" stroke="#bfbfbf" points="253,-152.25 158.25,-152.25 158.25,-133 253,-133 253,-152.25"/>
<text text-anchor="middle" x="205.62" y="-138.75" font-family="Helvetica,sans-Serif" font-size="10.00">UnityToolManager</text>
</a>
</g>
</g>
<!-- Node3&#45;&gt;Node1 -->
<g id="edge2_Node000001_Node000003" class="edge">
<title>Node3&#45;&gt;Node1</title>
<g id="a_edge2_Node000001_Node000003"><a xlink:title=" ">
<path fill="none" stroke="#9a32cd" stroke-dasharray="5,2" d="M235.45,-126.11C239.13,-122.93 242.39,-119.24 244.62,-115 260.76,-84.44 265.47,-64.81 244.62,-37.25 232.86,-21.69 212.7,-14.74 194.05,-11.8"/>
<polygon fill="#9a32cd" stroke="#9a32cd" points="233.69,-123.06 227.57,-131.71 237.75,-128.77 233.69,-123.06"/>
</a>
</g>
<text text-anchor="middle" x="304.5" y="-72.25" font-family="Helvetica,sans-Serif" font-size="10.00" fill="grey"> toolManagerInstance</text>
</g>
<!-- Node6 -->
<g id="Node000006" class="node">
<title>Node6</title>
<g id="a_Node000006"><a xlink:href="class_research_mode_controller.html" target="_top" xlink:title=" ">
<polygon fill="white" stroke="#bfbfbf" points="215.88,-85.75 93.38,-85.75 93.38,-66.5 215.88,-66.5 215.88,-85.75"/>
<text text-anchor="middle" x="154.62" y="-72.25" font-family="Helvetica,sans-Serif" font-size="10.00">ResearchModeController</text>
</a>
</g>
</g>
<!-- Node3&#45;&gt;Node6 -->
<g id="edge7_Node000006_Node000003" class="edge">
<title>Node3&#45;&gt;Node6</title>
<g id="a_edge7_Node000006_Node000003"><a xlink:title=" ">
<path fill="none" stroke="#9a32cd" stroke-dasharray="5,2" d="M171.5,-126.65C167,-123.39 162.91,-119.53 159.88,-115 154.11,-106.4 153.42,-94.22 153.76,-86.01"/>
<polygon fill="#9a32cd" stroke="#9a32cd" points="169.42,-129.49 179.78,-131.73 173.08,-123.52 169.42,-129.49"/>
</a>
</g>
<text text-anchor="middle" x="203" y="-105.5" font-family="Helvetica,sans-Serif" font-size="10.00" fill="grey"> ToolManagerScript</text>
</g>
<!-- Node4 -->
<g id="Node000004" class="node">
<title>Node4</title>
<g id="a_Node000004"><a xlink:title=" ">
<polygon fill="white" stroke="#bfbfbf" points="167.38,-218.75 83.88,-218.75 83.88,-199.5 167.38,-199.5 167.38,-218.75"/>
<text text-anchor="middle" x="125.62" y="-205.25" font-family="Helvetica,sans-Serif" font-size="10.00">MonoBehaviour</text>
</a>
</g>
</g>
<!-- Node4&#45;&gt;Node3 -->
<g id="edge3_Node000003_Node000004" class="edge">
<title>Node4&#45;&gt;Node3</title>
<g id="a_edge3_Node000003_Node000004"><a xlink:title=" ">
<path fill="none" stroke="#63b8ff" d="M145.52,-192.08C160.92,-179.67 181.68,-162.93 194.34,-152.73"/>
<polygon fill="#63b8ff" stroke="#63b8ff" points="143.52,-189.21 137.93,-198.21 147.91,-194.65 143.52,-189.21"/>
</a>
</g>
</g>
<!-- Node4&#45;&gt;Node6 -->
<g id="edge6_Node000006_Node000004" class="edge">
<title>Node4&#45;&gt;Node6</title>
<g id="a_edge6_Node000006_Node000004"><a xlink:title=" ">
<path fill="none" stroke="#63b8ff" d="M130.08,-187.99C136.47,-159.11 147.99,-107.1 152.62,-86.19"/>
<polygon fill="#63b8ff" stroke="#63b8ff" points="126.69,-187.12 127.95,-197.64 133.52,-188.64 126.69,-187.12"/>
</a>
</g>
</g>
<!-- Node5 -->
<g id="Node000005" class="node">
<title>Node5</title>
<g id="a_Node000005"><a xlink:title=" ">
<polygon fill="white" stroke="#bfbfbf" points="235.5,-218.75 185.75,-218.75 185.75,-199.5 235.5,-199.5 235.5,-218.75"/>
<text text-anchor="middle" x="210.62" y="-205.25" font-family="Helvetica,sans-Serif" font-size="10.00">System</text>
</a>
</g>
</g>
<!-- Node5&#45;&gt;Node3 -->
<g id="edge4_Node000003_Node000005" class="edge">
<title>Node5&#45;&gt;Node3</title>
<g id="a_edge4_Node000003_Node000005"><a xlink:title=" ">
<path fill="none" stroke="#9a32cd" stroke-dasharray="5,2" d="M209.07,-188.02C208.14,-176.12 207.02,-161.63 206.31,-152.52"/>
<polygon fill="#9a32cd" stroke="#9a32cd" points="205.55,-187.95 209.81,-197.65 212.53,-187.41 205.55,-187.95"/>
</a>
</g>
<text text-anchor="middle" x="235.25" y="-172" font-family="Helvetica,sans-Serif" font-size="10.00" fill="grey"> ScriptTimer</text>
</g>
<!-- Node6&#45;&gt;Node1 -->
<g id="edge5_Node000001_Node000006" class="edge">
<title>Node6&#45;&gt;Node1</title>
<g id="a_edge5_Node000001_Node000006"><a xlink:title=" ">
<path fill="none" stroke="#9a32cd" stroke-dasharray="5,2" d="M152.18,-55.08C151.96,-52.86 151.77,-50.63 151.62,-48.5 150.94,-38.66 150.72,-27.35 150.65,-19.67"/>
<polygon fill="#9a32cd" stroke="#9a32cd" points="148.67,-55.22 153.27,-64.76 155.63,-54.44 148.67,-55.22"/>
</a>
</g>
<text text-anchor="middle" x="198.12" y="-39" font-family="Helvetica,sans-Serif" font-size="10.00" fill="grey"> rmControllerInstance</text>
</g>
</g>
</svg>
