<?xml version="1.0" encoding="UTF-8" standalone="no"?>
<!DOCTYPE svg PUBLIC "-//W3C//DTD SVG 1.1//EN"
 "http://www.w3.org/Graphics/SVG/1.1/DTD/svg11.dtd">
<!-- Generated by graphviz version 9.0.0 (20230911.1827)
 -->
<!-- Title: ResearchModeController Pages: 1 -->
<svg width="188pt" height="160pt"
 viewBox="0.00 0.00 188.00 160.25" xmlns="http://www.w3.org/2000/svg" xmlns:xlink="http://www.w3.org/1999/xlink">
<g id="graph0" class="graph" transform="scale(1 1) rotate(0) translate(4 156.25)">
<title>ResearchModeController</title>
<!-- Node1 -->
<g id="Node000001" class="node">
<title>Node1</title>
<g id="a_Node000001"><a xlink:title=" ">
<polygon fill="#999999" stroke="#666666" points="122.5,-19.25 0,-19.25 0,0 122.5,0 122.5,-19.25"/>
<text text-anchor="middle" x="61.25" y="-5.75" font-family="Helvetica,sans-Serif" font-size="10.00">ResearchModeController</text>
</a>
</g>
</g>
<!-- Node2 -->
<g id="Node000002" class="node">
<title>Node2</title>
<g id="a_Node000002"><a xlink:title=" ">
<polygon fill="white" stroke="#bfbfbf" points="87,-152.25 3.5,-152.25 3.5,-133 87,-133 87,-152.25"/>
<text text-anchor="middle" x="45.25" y="-138.75" font-family="Helvetica,sans-Serif" font-size="10.00">MonoBehaviour</text>
</a>
</g>
</g>
<!-- Node2&#45;&gt;Node1 -->
<g id="edge1_Node000001_Node000002" class="edge">
<title>Node2&#45;&gt;Node1</title>
<g id="a_edge1_Node000001_Node000002"><a xlink:title=" ">
<path fill="none" stroke="#63b8ff" d="M47.71,-121.49C51.24,-92.61 57.59,-40.6 60.14,-19.69"/>
<polygon fill="#63b8ff" stroke="#63b8ff" points="44.27,-120.77 46.53,-131.12 51.22,-121.62 44.27,-120.77"/>
</a>
</g>
</g>
<!-- Node3 -->
<g id="Node000003" class="node">
<title>Node3</title>
<g id="a_Node000003"><a xlink:href="class_unity_tool_manager.html" target="_top" xlink:title=" ">
<polygon fill="white" stroke="#bfbfbf" points="167.62,-85.75 72.88,-85.75 72.88,-66.5 167.62,-66.5 167.62,-85.75"/>
<text text-anchor="middle" x="120.25" y="-72.25" font-family="Helvetica,sans-Serif" font-size="10.00">UnityToolManager</text>
</a>
</g>
</g>
<!-- Node2&#45;&gt;Node3 -->
<g id="edge3_Node000003_Node000002" class="edge">
<title>Node2&#45;&gt;Node3</title>
<g id="a_edge3_Node000003_Node000002"><a xlink:title=" ">
<path fill="none" stroke="#63b8ff" d="M64.37,-125.19C78.85,-112.73 98.19,-96.09 109.91,-86.02"/>
<polygon fill="#63b8ff" stroke="#63b8ff" points="62.13,-122.5 56.83,-131.67 66.69,-127.8 62.13,-122.5"/>
</a>
</g>
</g>
<!-- Node3&#45;&gt;Node1 -->
<g id="edge2_Node000001_Node000003" class="edge">
<title>Node3&#45;&gt;Node1</title>
<g id="a_edge2_Node000001_Node000003"><a xlink:title=" ">
<path fill="none" stroke="#9a32cd" stroke-dasharray="5,2" d="M104.56,-57.97C93.24,-45.6 78.42,-29.4 69.38,-19.52"/>
<polygon fill="#9a32cd" stroke="#9a32cd" points="101.69,-60.02 111.02,-65.04 106.86,-55.3 101.69,-60.02"/>
</a>
</g>
<text text-anchor="middle" x="137.62" y="-39" font-family="Helvetica,sans-Serif" font-size="10.00" fill="grey"> ToolManagerScript</text>
</g>
<!-- Node4 -->
<g id="Node000004" class="node">
<title>Node4</title>
<g id="a_Node000004"><a xlink:title=" ">
<polygon fill="white" stroke="#bfbfbf" points="155.12,-152.25 105.38,-152.25 105.38,-133 155.12,-133 155.12,-152.25"/>
<text text-anchor="middle" x="130.25" y="-138.75" font-family="Helvetica,sans-Serif" font-size="10.00">System</text>
</a>
</g>
</g>
<!-- Node4&#45;&gt;Node3 -->
<g id="edge4_Node000003_Node000004" class="edge">
<title>Node4&#45;&gt;Node3</title>
<g id="a_edge4_Node000003_Node000004"><a xlink:title=" ">
<path fill="none" stroke="#9a32cd" stroke-dasharray="5,2" d="M127.13,-121.52C125.29,-109.62 123.04,-95.13 121.63,-86.02"/>
<polygon fill="#9a32cd" stroke="#9a32cd" points="123.64,-121.82 128.63,-131.16 130.55,-120.74 123.64,-121.82"/>
</a>
</g>
<text text-anchor="middle" x="152.88" y="-105.5" font-family="Helvetica,sans-Serif" font-size="10.00" fill="grey"> ScriptTimer</text>
</g>
</g>
</svg>
