<?xml version="1.0" encoding="UTF-8" standalone="no"?>
<!DOCTYPE svg PUBLIC "-//W3C//DTD SVG 1.1//EN"
 "http://www.w3.org/Graphics/SVG/1.1/DTD/svg11.dtd">
<!-- Generated by graphviz version 9.0.0 (20230911.1827)
 -->
<!-- Title: PrintToolDict Pages: 1 -->
<svg width="184pt" height="160pt"
 viewBox="0.00 0.00 184.00 160.25" xmlns="http://www.w3.org/2000/svg" xmlns:xlink="http://www.w3.org/1999/xlink">
<g id="graph0" class="graph" transform="scale(1 1) rotate(0) translate(4 156.25)">
<title>PrintToolDict</title>
<!-- Node1 -->
<g id="Node000001" class="node">
<title>Node1</title>
<g id="a_Node000001"><a xlink:title=" ">
<polygon fill="#999999" stroke="#666666" points="93.88,-19.25 21.62,-19.25 21.62,0 93.88,0 93.88,-19.25"/>
<text text-anchor="middle" x="57.75" y="-5.75" font-family="Helvetica,sans-Serif" font-size="10.00">PrintToolDict</text>
</a>
</g>
</g>
<!-- Node2 -->
<g id="Node000002" class="node">
<title>Node2</title>
<g id="a_Node000002"><a xlink:title=" ">
<polygon fill="white" stroke="#bfbfbf" points="83.5,-152.25 0,-152.25 0,-133 83.5,-133 83.5,-152.25"/>
<text text-anchor="middle" x="41.75" y="-138.75" font-family="Helvetica,sans-Serif" font-size="10.00">MonoBehaviour</text>
</a>
</g>
</g>
<!-- Node2&#45;&gt;Node1 -->
<g id="edge1_Node000001_Node000002" class="edge">
<title>Node2&#45;&gt;Node1</title>
<g id="a_edge1_Node000001_Node000002"><a xlink:title=" ">
<path fill="none" stroke="#63b8ff" d="M44.21,-121.49C47.74,-92.61 54.09,-40.6 56.64,-19.69"/>
<polygon fill="#63b8ff" stroke="#63b8ff" points="40.77,-120.77 43.03,-131.12 47.72,-121.62 40.77,-120.77"/>
</a>
</g>
</g>
<!-- Node3 -->
<g id="Node000003" class="node">
<title>Node3</title>
<g id="a_Node000003"><a xlink:href="class_unity_tool_manager.html" target="_top" xlink:title=" ">
<polygon fill="white" stroke="#bfbfbf" points="164.12,-85.75 69.38,-85.75 69.38,-66.5 164.12,-66.5 164.12,-85.75"/>
<text text-anchor="middle" x="116.75" y="-72.25" font-family="Helvetica,sans-Serif" font-size="10.00">UnityToolManager</text>
</a>
</g>
</g>
<!-- Node2&#45;&gt;Node3 -->
<g id="edge3_Node000003_Node000002" class="edge">
<title>Node2&#45;&gt;Node3</title>
<g id="a_edge3_Node000003_Node000002"><a xlink:title=" ">
<path fill="none" stroke="#63b8ff" d="M60.87,-125.19C75.35,-112.73 94.69,-96.09 106.41,-86.02"/>
<polygon fill="#63b8ff" stroke="#63b8ff" points="58.63,-122.5 53.33,-131.67 63.19,-127.8 58.63,-122.5"/>
</a>
</g>
</g>
<!-- Node3&#45;&gt;Node1 -->
<g id="edge2_Node000001_Node000003" class="edge">
<title>Node3&#45;&gt;Node1</title>
<g id="a_edge2_Node000001_Node000003"><a xlink:title=" ">
<path fill="none" stroke="#9a32cd" stroke-dasharray="5,2" d="M101.06,-57.97C89.74,-45.6 74.92,-29.4 65.88,-19.52"/>
<polygon fill="#9a32cd" stroke="#9a32cd" points="98.19,-60.02 107.52,-65.04 103.36,-55.3 98.19,-60.02"/>
</a>
</g>
<text text-anchor="middle" x="109.38" y="-39" font-family="Helvetica,sans-Serif" font-size="10.00" fill="grey"> toolMgr</text>
</g>
<!-- Node4 -->
<g id="Node000004" class="node">
<title>Node4</title>
<g id="a_Node000004"><a xlink:title=" ">
<polygon fill="white" stroke="#bfbfbf" points="151.62,-152.25 101.88,-152.25 101.88,-133 151.62,-133 151.62,-152.25"/>
<text text-anchor="middle" x="126.75" y="-138.75" font-family="Helvetica,sans-Serif" font-size="10.00">System</text>
</a>
</g>
</g>
<!-- Node4&#45;&gt;Node3 -->
<g id="edge4_Node000003_Node000004" class="edge">
<title>Node4&#45;&gt;Node3</title>
<g id="a_edge4_Node000003_Node000004"><a xlink:title=" ">
<path fill="none" stroke="#9a32cd" stroke-dasharray="5,2" d="M123.63,-121.52C121.79,-109.62 119.54,-95.13 118.13,-86.02"/>
<polygon fill="#9a32cd" stroke="#9a32cd" points="120.14,-121.82 125.13,-131.16 127.05,-120.74 120.14,-121.82"/>
</a>
</g>
<text text-anchor="middle" x="149.38" y="-105.5" font-family="Helvetica,sans-Serif" font-size="10.00" fill="grey"> ScriptTimer</text>
</g>
</g>
</svg>
