<?xml version="1.0" encoding="UTF-8" standalone="no"?>
<!DOCTYPE svg PUBLIC "-//W3C//DTD SVG 1.1//EN"
 "http://www.w3.org/Graphics/SVG/1.1/DTD/svg11.dtd">
<!-- Generated by graphviz version 9.0.0 (20230911.1827)
 -->
<!-- Title: UnityToolManager Pages: 1 -->
<svg width="169pt" height="94pt"
 viewBox="0.00 0.00 169.00 93.75" xmlns="http://www.w3.org/2000/svg" xmlns:xlink="http://www.w3.org/1999/xlink">
<g id="graph0" class="graph" transform="scale(1 1) rotate(0) translate(4 89.75)">
<title>UnityToolManager</title>
<!-- Node1 -->
<g id="Node000001" class="node">
<title>Node1</title>
<g id="a_Node000001"><a xlink:title=" ">
<polygon fill="#999999" stroke="#666666" points="131.12,-19.25 36.38,-19.25 36.38,0 131.12,0 131.12,-19.25"/>
<text text-anchor="middle" x="83.75" y="-5.75" font-family="Helvetica,sans-Serif" font-size="10.00">UnityToolManager</text>
</a>
</g>
</g>
<!-- Node2 -->
<g id="Node000002" class="node">
<title>Node2</title>
<g id="a_Node000002"><a xlink:title=" ">
<polygon fill="white" stroke="#bfbfbf" points="83.5,-85.75 0,-85.75 0,-66.5 83.5,-66.5 83.5,-85.75"/>
<text text-anchor="middle" x="41.75" y="-72.25" font-family="Helvetica,sans-Serif" font-size="10.00">MonoBehaviour</text>
</a>
</g>
</g>
<!-- Node2&#45;&gt;Node1 -->
<g id="edge1_Node000001_Node000002" class="edge">
<title>Node2&#45;&gt;Node1</title>
<g id="a_edge1_Node000001_Node000002"><a xlink:title=" ">
<path fill="none" stroke="#63b8ff" d="M53.87,-56.51C61.79,-44.35 71.77,-29.02 77.96,-19.52"/>
<polygon fill="#63b8ff" stroke="#63b8ff" points="50.94,-54.6 48.42,-64.89 56.81,-58.42 50.94,-54.6"/>
</a>
</g>
</g>
<!-- Node3 -->
<g id="Node000003" class="node">
<title>Node3</title>
<g id="a_Node000003"><a xlink:title=" ">
<polygon fill="white" stroke="#bfbfbf" points="151.62,-85.75 101.88,-85.75 101.88,-66.5 151.62,-66.5 151.62,-85.75"/>
<text text-anchor="middle" x="126.75" y="-72.25" font-family="Helvetica,sans-Serif" font-size="10.00">System</text>
</a>
</g>
</g>
<!-- Node3&#45;&gt;Node1 -->
<g id="edge2_Node000001_Node000003" class="edge">
<title>Node3&#45;&gt;Node1</title>
<g id="a_edge2_Node000001_Node000003"><a xlink:title=" ">
<path fill="none" stroke="#9a32cd" stroke-dasharray="5,2" d="M114.59,-56.88C106.44,-44.66 96.08,-29.11 89.68,-19.52"/>
<polygon fill="#9a32cd" stroke="#9a32cd" points="111.47,-58.52 119.93,-64.9 117.3,-54.64 111.47,-58.52"/>
</a>
</g>
<text text-anchor="middle" x="134.38" y="-39" font-family="Helvetica,sans-Serif" font-size="10.00" fill="grey"> ScriptTimer</text>
</g>
</g>
</svg>
