<?xml version="1.0" encoding="UTF-8" standalone="no"?>
<!DOCTYPE svg PUBLIC "-//W3C//DTD SVG 1.1//EN"
 "http://www.w3.org/Graphics/SVG/1.1/DTD/svg11.dtd">
<!-- Generated by graphviz version 9.0.0 (20230911.1827)
 -->
<!-- Title: SEQ_DIAGRAM Pages: 1 -->
<svg width="668pt" height="251pt"
 viewBox="0.00 0.00 667.58 250.60" xmlns="http://www.w3.org/2000/svg" xmlns:xlink="http://www.w3.org/1999/xlink">
<g id="graph0" class="graph" transform="scale(1 1) rotate(0) translate(4 246.6)">
<title>SEQ_DIAGRAM</title>
<polygon fill="white" stroke="none" points="-4,4 -4,-246.6 663.58,-246.6 663.58,4 -4,4"/>
<!-- api_a -->
<g id="node1" class="node">
<title>api_a</title>
<polygon fill="lightgrey" stroke="black" points="86.4,-242.6 0,-242.6 0,-238.6 -4,-238.6 -4,-234.6 0,-234.6 0,-200.2 -4,-200.2 -4,-196.2 0,-196.2 0,-192.2 86.4,-192.2 86.4,-242.6"/>
<polyline fill="none" stroke="black" points="0,-238.6 4,-238.6 4,-234.6 0,-234.6"/>
<polyline fill="none" stroke="black" points="0,-200.2 4,-200.2 4,-196.2 0,-196.2"/>
<text text-anchor="middle" x="43.2" y="-220.25" font-family="Helvetica,Arial,sans-serif" font-size="12.00">HL2Dino</text>
<text text-anchor="middle" x="43.2" y="-206" font-family="Helvetica,Arial,sans-serif" font-size="12.00">Plugin.dll</text>
</g>
<!-- a1 -->
<g id="node5" class="node">
<title>a1</title>
</g>
<!-- api_a&#45;&gt;a1 -->
<g id="edge1" class="edge">
<title>api_a&#45;&gt;a1</title>
<path fill="none" stroke="black" stroke-dasharray="5,2" d="M43.2,-191.86C43.2,-175.37 43.2,-156.42 43.2,-155.26"/>
</g>
<!-- api_b -->
<g id="node2" class="node">
<title>api_b</title>
<polygon fill="lightgrey" stroke="black" points="271.07,-242.6 173.32,-242.6 173.32,-192.2 271.07,-192.2 271.07,-242.6"/>
<text text-anchor="middle" x="222.2" y="-220.25" font-family="Helvetica,Arial,sans-serif" font-size="12.00">ResearchMode</text>
<text text-anchor="middle" x="222.2" y="-206" font-family="Helvetica,Arial,sans-serif" font-size="12.00">Controller.cs</text>
</g>
<!-- b1 -->
<g id="node10" class="node">
<title>b1</title>
</g>
<!-- api_b&#45;&gt;b1 -->
<g id="edge6" class="edge">
<title>api_b&#45;&gt;b1</title>
<path fill="none" stroke="black" stroke-dasharray="5,2" d="M222.2,-191.86C222.2,-175.37 222.2,-156.42 222.2,-155.26"/>
</g>
<!-- api_c -->
<g id="node3" class="node">
<title>api_c</title>
<polygon fill="lightgrey" stroke="black" points="438.4,-242.6 352,-242.6 352,-192.2 438.4,-192.2 438.4,-242.6"/>
<text text-anchor="middle" x="395.2" y="-220.25" font-family="Helvetica,Arial,sans-serif" font-size="12.00">UnityTool</text>
<text text-anchor="middle" x="395.2" y="-206" font-family="Helvetica,Arial,sans-serif" font-size="12.00">Manager.cs</text>
</g>
<!-- c1 -->
<g id="node15" class="node">
<title>c1</title>
</g>
<!-- api_c&#45;&gt;c1 -->
<g id="edge11" class="edge">
<title>api_c&#45;&gt;c1</title>
<path fill="none" stroke="black" stroke-dasharray="5,2" d="M395.2,-191.86C395.2,-175.37 395.2,-156.42 395.2,-155.26"/>
</g>
<!-- api_d -->
<g id="node4" class="node">
<title>api_d</title>
<polygon fill="lightgrey" stroke="black" points="659.58,-242.6 552.83,-242.6 552.83,-192.2 659.58,-192.2 659.58,-242.6"/>
<text text-anchor="middle" x="606.2" y="-213.12" font-family="Helvetica,Arial,sans-serif" font-size="12.00">Unity Transforms</text>
</g>
<!-- d1 -->
<g id="node20" class="node">
<title>d1</title>
</g>
<!-- api_d&#45;&gt;d1 -->
<g id="edge16" class="edge">
<title>api_d&#45;&gt;d1</title>
<path fill="none" stroke="black" stroke-dasharray="5,2" d="M606.2,-191.86C606.2,-175.37 606.2,-156.42 606.2,-155.26"/>
</g>
<!-- a2 -->
<g id="node6" class="node">
<title>a2</title>
</g>
<!-- a1&#45;&gt;a2 -->
<g id="edge2" class="edge">
<title>a1&#45;&gt;a2</title>
<path fill="none" stroke="black" stroke-width="5" d="M43.2,-153.65C43.2,-151.55 43.2,-118.9 43.2,-116.86"/>
</g>
<!-- a1&#45;&gt;b1 -->
<g id="edge21" class="edge">
<title>a1&#45;&gt;b1</title>
<path fill="none" stroke="black" d="M54.6,-154.48C93.3,-154.48 217.57,-154.48 222.07,-154.48"/>
<polygon fill="black" stroke="black" points="54.84,-150.98 44.84,-154.48 54.84,-157.98 54.84,-150.98"/>
<text text-anchor="middle" x="132.7" y="-159.23" font-family="Helvetica,Arial,sans-serif" font-size="10.00">Query DLL for info</text>
</g>
<!-- a3 -->
<g id="node7" class="node">
<title>a3</title>
</g>
<!-- a2&#45;&gt;a3 -->
<g id="edge3" class="edge">
<title>a2&#45;&gt;a3</title>
<path fill="none" stroke="black" stroke-dasharray="5,2" d="M43.2,-115.21C43.2,-113.11 43.2,-80.46 43.2,-78.42"/>
</g>
<!-- b2 -->
<g id="node11" class="node">
<title>b2</title>
</g>
<!-- a2&#45;&gt;b2 -->
<g id="edge22" class="edge">
<title>a2&#45;&gt;b2</title>
<path fill="none" stroke="black" d="M43.33,-116.04C47.89,-116.04 171.61,-116.04 210.57,-116.04"/>
<polygon fill="black" stroke="black" points="210.56,-119.54 220.56,-116.04 210.56,-112.54 210.56,-119.54"/>
<text text-anchor="middle" x="132.7" y="-132.04" font-family="Helvetica,Arial,sans-serif" font-size="10.00">Expose encoded tool</text>
<text text-anchor="middle" x="132.7" y="-120.79" font-family="Helvetica,Arial,sans-serif" font-size="10.00"> data and sensor images</text>
</g>
<!-- a4 -->
<g id="node8" class="node">
<title>a4</title>
</g>
<!-- a3&#45;&gt;a4 -->
<g id="edge4" class="edge">
<title>a3&#45;&gt;a4</title>
<path fill="none" stroke="black" stroke-dasharray="5,2" d="M43.2,-76.77C43.2,-74.67 43.2,-42.02 43.2,-39.98"/>
</g>
<!-- a5 -->
<g id="node9" class="node">
<title>a5</title>
</g>
<!-- a4&#45;&gt;a5 -->
<g id="edge5" class="edge">
<title>a4&#45;&gt;a5</title>
<path fill="none" stroke="black" stroke-dasharray="5,2" d="M43.2,-38.33C43.2,-36.23 43.2,-3.58 43.2,-1.54"/>
</g>
<!-- b1&#45;&gt;b2 -->
<g id="edge7" class="edge">
<title>b1&#45;&gt;b2</title>
<path fill="none" stroke="black" stroke-dasharray="5,2" d="M222.2,-153.65C222.2,-151.55 222.2,-118.9 222.2,-116.86"/>
</g>
<!-- b3 -->
<g id="node12" class="node">
<title>b3</title>
</g>
<!-- b2&#45;&gt;b3 -->
<g id="edge8" class="edge">
<title>b2&#45;&gt;b3</title>
<path fill="none" stroke="black" stroke-width="5" d="M222.2,-115.21C222.2,-113.11 222.2,-80.46 222.2,-78.42"/>
</g>
<!-- b4 -->
<g id="node13" class="node">
<title>b4</title>
</g>
<!-- b3&#45;&gt;b4 -->
<g id="edge9" class="edge">
<title>b3&#45;&gt;b4</title>
<path fill="none" stroke="black" stroke-dasharray="5,2" d="M222.2,-76.77C222.2,-74.67 222.2,-42.02 222.2,-39.98"/>
</g>
<!-- c3 -->
<g id="node17" class="node">
<title>c3</title>
</g>
<!-- b3&#45;&gt;c3 -->
<g id="edge23" class="edge">
<title>b3&#45;&gt;c3</title>
<path fill="none" stroke="black" d="M222.33,-77.6C226.73,-77.6 345.76,-77.6 383.7,-77.6"/>
<polygon fill="black" stroke="black" points="383.56,-81.1 393.56,-77.6 383.56,-74.1 383.56,-81.1"/>
<text text-anchor="middle" x="308.7" y="-93.6" font-family="Helvetica,Arial,sans-serif" font-size="10.00">Pass encoded double</text>
<text text-anchor="middle" x="308.7" y="-82.35" font-family="Helvetica,Arial,sans-serif" font-size="10.00"> array of tool&#45;pose data</text>
</g>
<!-- b5 -->
<g id="node14" class="node">
<title>b5</title>
</g>
<!-- b4&#45;&gt;b5 -->
<g id="edge10" class="edge">
<title>b4&#45;&gt;b5</title>
<path fill="none" stroke="black" stroke-dasharray="5,2" d="M222.2,-38.33C222.2,-36.23 222.2,-3.58 222.2,-1.54"/>
</g>
<!-- c2 -->
<g id="node16" class="node">
<title>c2</title>
</g>
<!-- c1&#45;&gt;c2 -->
<g id="edge12" class="edge">
<title>c1&#45;&gt;c2</title>
<path fill="none" stroke="black" stroke-dasharray="5,2" d="M395.2,-153.65C395.2,-151.55 395.2,-118.9 395.2,-116.86"/>
</g>
<!-- c2&#45;&gt;c3 -->
<g id="edge13" class="edge">
<title>c2&#45;&gt;c3</title>
<path fill="none" stroke="black" stroke-dasharray="5,2" d="M395.2,-115.21C395.2,-113.11 395.2,-80.46 395.2,-78.42"/>
</g>
<!-- c4 -->
<g id="node18" class="node">
<title>c4</title>
</g>
<!-- c3&#45;&gt;c4 -->
<g id="edge14" class="edge">
<title>c3&#45;&gt;c4</title>
<path fill="none" stroke="black" stroke-width="5" d="M395.2,-76.77C395.2,-74.67 395.2,-42.02 395.2,-39.98"/>
</g>
<!-- c5 -->
<g id="node19" class="node">
<title>c5</title>
</g>
<!-- c4&#45;&gt;c5 -->
<g id="edge15" class="edge">
<title>c4&#45;&gt;c5</title>
<path fill="none" stroke="black" stroke-dasharray="5,2" d="M395.2,-38.33C395.2,-36.23 395.2,-3.58 395.2,-1.54"/>
</g>
<!-- d4 -->
<g id="node23" class="node">
<title>d4</title>
</g>
<!-- c4&#45;&gt;d4 -->
<g id="edge24" class="edge">
<title>c4&#45;&gt;d4</title>
<path fill="none" stroke="black" d="M395.35,-39.16C400.82,-39.16 551.27,-39.16 594.62,-39.16"/>
<polygon fill="black" stroke="black" points="594.54,-42.66 604.54,-39.16 594.54,-35.66 594.54,-42.66"/>
<text text-anchor="middle" x="500.7" y="-55.16" font-family="Helvetica,Arial,sans-serif" font-size="10.00">Parse data, set position/rotation</text>
<text text-anchor="middle" x="500.7" y="-43.91" font-family="Helvetica,Arial,sans-serif" font-size="10.00"> of Unity GameObjects</text>
</g>
<!-- d2 -->
<g id="node21" class="node">
<title>d2</title>
</g>
<!-- d1&#45;&gt;d2 -->
<g id="edge17" class="edge">
<title>d1&#45;&gt;d2</title>
<path fill="none" stroke="black" stroke-dasharray="5,2" d="M606.2,-153.65C606.2,-151.55 606.2,-118.9 606.2,-116.86"/>
</g>
<!-- d3 -->
<g id="node22" class="node">
<title>d3</title>
</g>
<!-- d2&#45;&gt;d3 -->
<g id="edge18" class="edge">
<title>d2&#45;&gt;d3</title>
<path fill="none" stroke="black" stroke-dasharray="5,2" d="M606.2,-115.21C606.2,-113.11 606.2,-80.46 606.2,-78.42"/>
</g>
<!-- d3&#45;&gt;d4 -->
<g id="edge19" class="edge">
<title>d3&#45;&gt;d4</title>
<path fill="none" stroke="black" stroke-dasharray="5,2" d="M606.2,-76.77C606.2,-74.67 606.2,-42.02 606.2,-39.98"/>
</g>
<!-- d5 -->
<g id="node24" class="node">
<title>d5</title>
</g>
<!-- d4&#45;&gt;d5 -->
<g id="edge20" class="edge">
<title>d4&#45;&gt;d5</title>
<path fill="none" stroke="black" stroke-dasharray="5,2" d="M606.2,-38.33C606.2,-36.23 606.2,-3.58 606.2,-1.54"/>
</g>
</g>
</svg>
