<?xml version="1.0" encoding="UTF-8" standalone="no"?>
<!DOCTYPE svg PUBLIC "-//W3C//DTD SVG 1.1//EN"
 "http://www.w3.org/Graphics/SVG/1.1/DTD/svg11.dtd">
<!-- Generated by graphviz version 9.0.0 (20230911.1827)
 -->
<!-- Title: G Pages: 1 -->
<svg width="488pt" height="167pt"
 viewBox="0.00 0.00 488.07 167.30" xmlns="http://www.w3.org/2000/svg" xmlns:xlink="http://www.w3.org/1999/xlink">
<g id="graph0" class="graph" transform="scale(1 1) rotate(0) translate(4 163.3)">
<title>G</title>
<polygon fill="white" stroke="none" points="-4,4 -4,-163.3 484.07,-163.3 484.07,4 -4,4"/>
<!-- api_b -->
<g id="node1" class="node">
<title>api_b</title>
<polygon fill="lightgrey" stroke="black" points="86.4,-50.4 0,-50.4 0,0 86.4,0 86.4,-50.4"/>
<text text-anchor="middle" x="43.2" y="-28.05" font-family="Helvetica,Arial,sans-serif" font-size="12.00">UnityTool</text>
<text text-anchor="middle" x="43.2" y="-13.8" font-family="Helvetica,Arial,sans-serif" font-size="12.00">Manager.cs</text>
</g>
<!-- api_c -->
<g id="node2" class="node">
<title>api_c</title>
<polygon fill="lightgrey" stroke="black" points="298.95,-50.4 179.45,-50.4 179.45,0 298.95,0 298.95,-50.4"/>
<text text-anchor="middle" x="239.2" y="-20.93" font-family="Helvetica,Arial,sans-serif" font-size="12.00">DinoEditorSetup.cs</text>
</g>
<!-- api_b&#45;&gt;api_c -->
<g id="edge3" class="edge">
<title>api_b&#45;&gt;api_c</title>
<path fill="none" stroke="black" d="M97.93,-25.2C123.18,-25.2 153.22,-25.2 179.1,-25.2"/>
<polygon fill="black" stroke="black" points="98.21,-21.7 88.21,-25.2 98.21,-28.7 98.21,-21.7"/>
<text text-anchor="middle" x="132.92" y="-41.2" font-family="Helvetica,Arial,sans-serif" font-size="10.00">Populate internal</text>
<text text-anchor="middle" x="132.92" y="-29.95" font-family="Helvetica,Arial,sans-serif" font-size="10.00"> &#39;TrackedToolList&#39;</text>
</g>
<!-- api_d -->
<g id="node3" class="node">
<title>api_d</title>
<polygon fill="lightgrey" stroke="black" points="480.07,-50.4 382.32,-50.4 382.32,0 480.07,0 480.07,-50.4"/>
<text text-anchor="middle" x="431.2" y="-28.05" font-family="Helvetica,Arial,sans-serif" font-size="12.00">ResearchMode</text>
<text text-anchor="middle" x="431.2" y="-13.8" font-family="Helvetica,Arial,sans-serif" font-size="12.00">Controller.cs</text>
</g>
<!-- api_c&#45;&gt;api_d -->
<g id="edge2" class="edge">
<title>api_c&#45;&gt;api_d</title>
<path fill="none" stroke="black" d="M299.42,-25.2C322.19,-25.2 348.09,-25.2 370.87,-25.2"/>
<polygon fill="black" stroke="black" points="370.6,-28.7 380.6,-25.2 370.6,-21.7 370.6,-28.7"/>
<text text-anchor="middle" x="340.64" y="-41.2" font-family="Helvetica,Arial,sans-serif" font-size="10.00">Set filepath for</text>
<text text-anchor="middle" x="340.64" y="-29.95" font-family="Helvetica,Arial,sans-serif" font-size="10.00"> configFile.json</text>
</g>
<!-- api_a -->
<g id="node4" class="node">
<title>api_a</title>
<polygon fill="lightgrey" stroke="black" points="276.4,-159.3 196,-159.3 196,-108.9 282.4,-108.9 282.4,-153.3 276.4,-159.3"/>
<polyline fill="none" stroke="black" points="276.4,-159.3 276.4,-153.3"/>
<polyline fill="none" stroke="black" points="282.4,-153.3 276.4,-153.3"/>
<text text-anchor="middle" x="239.2" y="-136.95" font-family="Helvetica,Arial,sans-serif" font-size="12.00">config</text>
<text text-anchor="middle" x="239.2" y="-122.7" font-family="Helvetica,Arial,sans-serif" font-size="12.00">File.json</text>
</g>
<!-- api_a&#45;&gt;api_c -->
<g id="edge1" class="edge">
<title>api_a&#45;&gt;api_c</title>
<path fill="none" stroke="black" d="M239.2,-108.57C239.2,-94.72 239.2,-77.16 239.2,-61.82"/>
<polygon fill="black" stroke="black" points="242.7,-62.12 239.2,-52.12 235.7,-62.12 242.7,-62.12"/>
<text text-anchor="middle" x="275.95" y="-81.4" font-family="Helvetica,Arial,sans-serif" font-size="10.00"> &#160;Read config file</text>
<text text-anchor="middle" x="275.95" y="-70.15" font-family="Helvetica,Arial,sans-serif" font-size="10.00"> properties</text>
</g>
</g>
</svg>
