<?xml version="1.0" encoding="UTF-8" standalone="no"?>
<!DOCTYPE svg PUBLIC "-//W3C//DTD SVG 1.1//EN"
 "http://www.w3.org/Graphics/SVG/1.1/DTD/svg11.dtd">
<!-- Generated by graphviz version 9.0.0 (20230911.1827)
 -->
<!-- Title: Graphical Class Hierarchy Pages: 1 -->
<svg width="250pt" height="138pt"
 viewBox="0.00 0.00 250.00 138.25" xmlns="http://www.w3.org/2000/svg" xmlns:xlink="http://www.w3.org/1999/xlink">
<g id="graph0" class="graph" transform="scale(1 1) rotate(0) translate(4 134.25)">
<title>Graphical Class Hierarchy</title>
<!-- Node0 -->
<g id="Node000000" class="node">
<title>Node0</title>
<g id="a_Node000000"><a xlink:title=" ">
<polygon fill="#e0e0e0" stroke="#999999" points="83.5,-74.25 0,-74.25 0,-55 83.5,-55 83.5,-74.25"/>
<text text-anchor="middle" x="41.75" y="-60.75" font-family="Helvetica,sans-Serif" font-size="10.00">MonoBehaviour</text>
</a>
</g>
</g>
<!-- Node1 -->
<g id="Node000001" class="node">
<title>Node1</title>
<g id="a_Node000001"><a xlink:href="class_print_tool_dict.html" target="_top" xlink:title=" ">
<polygon fill="white" stroke="#666666" points="216.88,-130.25 144.62,-130.25 144.62,-111 216.88,-111 216.88,-130.25"/>
<text text-anchor="middle" x="180.75" y="-116.75" font-family="Helvetica,sans-Serif" font-size="10.00">PrintToolDict</text>
</a>
</g>
</g>
<!-- Node0&#45;&gt;Node1 -->
<g id="edge2_Node000000_Node000001" class="edge">
<title>Node0&#45;&gt;Node1</title>
<g id="a_edge2_Node000000_Node000001"><a xlink:title=" ">
<path fill="none" stroke="#63b8ff" d="M71.12,-80.11C85.37,-87.52 103.07,-96.16 119.5,-102.62 127.42,-105.74 136.11,-108.63 144.36,-111.14"/>
<polygon fill="#63b8ff" stroke="#63b8ff" points="72.78,-77.03 62.3,-75.45 69.5,-83.21 72.78,-77.03"/>
</a>
</g>
</g>
<!-- Node2 -->
<g id="Node000002" class="node">
<title>Node2</title>
<g id="a_Node000002"><a xlink:href="class_r_m_visualiser_unity.html" target="_top" xlink:title=" ">
<polygon fill="white" stroke="#666666" points="228.88,-93.25 132.62,-93.25 132.62,-74 228.88,-74 228.88,-93.25"/>
<text text-anchor="middle" x="180.75" y="-79.75" font-family="Helvetica,sans-Serif" font-size="10.00">RMVisualiserUnity</text>
</a>
</g>
</g>
<!-- Node0&#45;&gt;Node2 -->
<g id="edge3_Node000000_Node000002" class="edge">
<title>Node0&#45;&gt;Node2</title>
<g id="a_edge3_Node000000_Node000002"><a xlink:title=" ">
<path fill="none" stroke="#63b8ff" d="M94.92,-71.86C107.24,-73.57 120.32,-75.38 132.42,-77.06"/>
<polygon fill="#63b8ff" stroke="#63b8ff" points="95.74,-68.44 85.35,-70.53 94.78,-75.37 95.74,-68.44"/>
</a>
</g>
</g>
<!-- Node3 -->
<g id="Node000003" class="node">
<title>Node3</title>
<g id="a_Node000003"><a xlink:href="class_research_mode_controller.html" target="_top" xlink:title=" ">
<polygon fill="white" stroke="#666666" points="242,-56.25 119.5,-56.25 119.5,-37 242,-37 242,-56.25"/>
<text text-anchor="middle" x="180.75" y="-42.75" font-family="Helvetica,sans-Serif" font-size="10.00">ResearchModeController</text>
</a>
</g>
</g>
<!-- Node0&#45;&gt;Node3 -->
<g id="edge4_Node000000_Node000003" class="edge">
<title>Node0&#45;&gt;Node3</title>
<g id="a_edge4_Node000000_Node000003"><a xlink:title=" ">
<path fill="none" stroke="#63b8ff" d="M95.11,-57.75C102.98,-56.71 111.15,-55.64 119.17,-54.58"/>
<polygon fill="#63b8ff" stroke="#63b8ff" points="94.81,-54.25 85.36,-59.03 95.73,-61.19 94.81,-54.25"/>
</a>
</g>
</g>
<!-- Node4 -->
<g id="Node000004" class="node">
<title>Node4</title>
<g id="a_Node000004"><a xlink:href="class_unity_tool_manager.html" target="_top" xlink:title=" ">
<polygon fill="white" stroke="#666666" points="228.12,-19.25 133.38,-19.25 133.38,0 228.12,0 228.12,-19.25"/>
<text text-anchor="middle" x="180.75" y="-5.75" font-family="Helvetica,sans-Serif" font-size="10.00">UnityToolManager</text>
</a>
</g>
</g>
<!-- Node0&#45;&gt;Node4 -->
<g id="edge5_Node000000_Node000004" class="edge">
<title>Node0&#45;&gt;Node4</title>
<g id="a_edge5_Node000000_Node000004"><a xlink:title=" ">
<path fill="none" stroke="#63b8ff" d="M71.45,-49.45C85.67,-42.28 103.23,-33.93 119.5,-27.62 126.93,-24.74 135.02,-22.04 142.79,-19.65"/>
<polygon fill="#63b8ff" stroke="#63b8ff" points="69.95,-46.28 62.65,-53.96 73.15,-52.51 69.95,-46.28"/>
</a>
</g>
</g>
</g>
</svg>
